<svg width="16" height="16" viewBox="0 0 16 16" fill="none" xmlns="http://www.w3.org/2000/svg">
<path d="M13.365 10.9822C12.5625 10 11.9959 9.5 11.9959 6.79219C11.9959 4.3125 10.7297 3.42906 9.68748 3C9.54904 2.94312 9.41873 2.8125 9.37654 2.67031C9.19373 2.04812 8.68123 1.5 7.99998 1.5C7.31873 1.5 6.80592 2.04844 6.62498 2.67094C6.58279 2.81469 6.45248 2.94312 6.31404 3C5.2706 3.42969 4.0056 4.31 4.0056 6.79219C4.00404 9.5 3.43748 10 2.63498 10.9822C2.30248 11.3891 2.59373 12 3.17529 12H12.8278C13.4062 12 13.6956 11.3872 13.365 10.9822Z" stroke="#2D3D49" stroke-linecap="round" stroke-linejoin="round"/>
<path d="M10 12V12.5C10 13.0304 9.78929 13.5391 9.41421 13.9142C9.03914 14.2893 8.53043 14.5 8 14.5C7.46957 14.5 6.96086 14.2893 6.58579 13.9142C6.21071 13.5391 6 13.0304 6 12.5V12" stroke="#2D3D49" stroke-linecap="round" stroke-linejoin="round"/>
</svg>
