<svg width="15" height="15" viewBox="0 0 15 15" fill="none" xmlns="http://www.w3.org/2000/svg">
<path d="M7 1.5H2H7ZM14.5 12.5V4.5C14.5 4.23478 14.3946 3.98043 14.2071 3.79289C14.0196 3.60536 13.7652 3.5 13.5 3.5H1.5C1.23478 3.5 0.98043 3.60536 0.792893 3.79289C0.605357 3.98043 0.5 4.23478 0.5 4.5V12.5C0.5 12.7652 0.605357 13.0196 0.792893 13.2071C0.98043 13.3946 1.23478 13.5 1.5 13.5H13.5C13.7652 13.5 14.0196 13.3946 14.2071 13.2071C14.3946 13.0196 14.5 12.7652 14.5 12.5ZM9.5 10.5C8.96957 10.5 8.46086 10.2893 8.08579 9.91421C7.71071 9.53914 7.5 9.03043 7.5 8.5C7.5 7.96957 7.71071 7.46086 8.08579 7.08579C8.46086 6.71071 8.96957 6.5 9.5 6.5C10.0304 6.5 10.5391 6.71071 10.9142 7.08579C11.2893 7.46086 11.5 7.96957 11.5 8.5C11.5 9.03043 11.2893 9.53914 10.9142 9.91421C10.5391 10.2893 10.0304 10.5 9.5 10.5Z" stroke="#2D3D49"/>
</svg>
