<svg width="16" height="16" viewBox="0 0 16 16" fill="none" xmlns="http://www.w3.org/2000/svg">
<g clip-path="url(#clip0_1_162)">
<path d="M0.533333 11.2001L0.155733 10.8225L0 10.9793V11.2001H0.533333ZM11.2 0.533386L11.5776 0.155786C11.5281 0.106119 11.4692 0.0667133 11.4044 0.0398264C11.3396 0.0129395 11.2702 -0.000900269 11.2 -0.000900269C11.1298 -0.000900269 11.0604 0.0129395 10.9956 0.0398264C10.9308 0.0667133 10.8719 0.106119 10.8224 0.155786L11.2 0.533386ZM15.4667 4.80005L15.8443 5.17765C15.8939 5.12811 15.9333 5.06926 15.9602 5.00446C15.9871 4.93967 16.001 4.8702 16.001 4.80005C16.001 4.7299 15.9871 4.66044 15.9602 4.59564C15.9333 4.53085 15.8939 4.47199 15.8443 4.42245L15.4667 4.80005ZM4.8 15.4667V16.0001H5.0208L5.1776 15.8443L4.8 15.4667ZM0.533333 15.4667H0C0 15.6082 0.0561903 15.7438 0.15621 15.8438C0.256229 15.9439 0.391885 16.0001 0.533333 16.0001V15.4667ZM0.910933 11.5777L11.5776 0.910986L10.8224 0.155786L0.155733 10.8225L0.910933 11.5777ZM10.8224 0.910986L15.0891 5.17765L15.8443 4.42245L11.5776 0.155786L10.8224 0.910986ZM15.0891 4.42245L4.4224 15.0891L5.1776 15.8443L15.8443 5.17765L15.0891 4.42245ZM4.8 14.9334H0.533333V16.0001H4.8V14.9334ZM1.06667 15.4667V11.2001H0V15.4667H1.06667Z" fill="#2D3D49"/>
</g>
<defs>
<clipPath id="clip0_1_162">
<rect width="16" height="16" fill="white"/>
</clipPath>
</defs>
</svg>
