<svg width="16" height="16" viewBox="0 0 16 16" fill="none" xmlns="http://www.w3.org/2000/svg">
<g clip-path="url(#clip0_1_38)">
<path d="M15.4667 15.4667L11.2 11.2L15.4667 15.4667ZM6.93332 13.3333C6.09286 13.3333 5.26063 13.1678 4.48415 12.8462C3.70767 12.5245 3.00214 12.0531 2.40784 11.4588C1.81355 10.8645 1.34213 10.159 1.0205 9.3825C0.698866 8.60601 0.533325 7.77378 0.533325 6.93332C0.533325 6.09286 0.698866 5.26063 1.0205 4.48415C1.34213 3.70767 1.81355 3.00214 2.40784 2.40784C3.00214 1.81355 3.70767 1.34213 4.48415 1.0205C5.26063 0.698866 6.09286 0.533325 6.93332 0.533325C8.63071 0.533325 10.2586 1.20761 11.4588 2.40784C12.659 3.60807 13.3333 5.23594 13.3333 6.93332C13.3333 8.63071 12.659 10.2586 11.4588 11.4588C10.2586 12.659 8.63071 13.3333 6.93332 13.3333Z" stroke="#2D3D49"/>
</g>
<defs>
<clipPath id="clip0_1_38">
<rect width="16" height="16" fill="white"/>
</clipPath>
</defs>
</svg>
